<svg id="Capa_1" enable-background="new 0 0 511.966 511.966" height="512" viewBox="0 0 511.966 511.966" width="512" xmlns="http://www.w3.org/2000/svg"><g><g><path d="m356.395 119.87c-.02.03-.04.05-.06.08l-66.05 90.99c-4.89-3.487-10.331-6.244-16.168-8.117-3.766-1.209-6.773-4.067-7.996-7.828l-4.007-12.325c-2.45-7.56-13.14-7.56-15.6 0l-4.42 13.608c-1.164 3.584-3.908 6.406-7.418 7.779-4.629 1.81-8.969 4.193-12.944 7.065-.003-.001-.005-.001-.008-.001l-66.29-91.15c-8.6-11.92-12.82-26.48-11.91-41.17v-.11c2.07-33.58 29.91-59.76 63.55-59.76h97.69c16.84 0 32.23 6.56 43.66 17.32 11.43 10.77 18.9 25.73 19.9 42.54.881 14.659-3.339 29.179-11.929 41.079z" fill="#ffec80"/></g><g><path d="m221.725 211.12c-4.209 3.032-7.996 6.6-11.265 10.612-2.334 2.865-5.864 4.488-9.559 4.488h-14.326c-7.95 0-11.25 10.17-4.82 14.84l10.363 7.524c3.272 2.375 5.132 6.192 5.127 10.235v.071c0 6.1.93 11.98 2.65 17.51l-127.71 41.44-21.83-8.58c-31.32-12.33-47.64-46.91-37.24-78.93l15.09-46.46 15.01-46.17c10.44-32.13 44.16-50.52 76.82-41.88l.18.04c14.17 3.75 26.61 12.26 35.22 24.11z" fill="#ffec80"/></g><g><path d="m255.975 317.76v111.51c0 14.8-5.15 29.13-14.57 40.54l-.1.12c-21.41 25.94-59.32 30.75-86.53 10.98l-39.57-28.75-39.47-28.68c-27.25-19.8-34.37-57.41-16.23-85.79l12.68-19.85 127.71-41.44c1.604 5.137 3.896 9.973 6.763 14.404 2.008 3.104 2.457 6.966 1.314 10.482l-3.327 10.235c-2.45 7.56 6.2 13.84 12.63 9.17l6.839-4.971c3.353-2.437 7.701-3.052 11.587-1.61 6.316 2.342 13.142 3.635 20.274 3.65z" fill="#ffec80"/></g><g><path d="m436.335 423.38-39.6 28.78-39.57 28.75c-27.21 19.77-65.11 14.96-86.53-10.98l-.1-.12c-9.41-11.41-14.56-25.74-14.56-40.54v-111.51h.14c6.442 0 12.643-1.046 18.446-2.962 3.809-1.257 7.997-.504 11.242 1.852l5.562 4.039c6.42 4.67 15.07-1.61 12.62-9.17l-2.163-6.662c-1.231-3.792-.576-7.949 1.785-11.162 3.793-5.163 6.762-10.97 8.718-17.226l105.9 34.33c14.1 4.57 26.17 13.92 34.11 26.43l.33.51c18.02 28.381 10.87 65.881-16.33 85.641z" fill="#ffec80"/></g><g><path d="m461.705 309.311-.39.15c-13.75 5.44-28.97 5.92-43.04 1.35l-.05-.01-105.9-34.33c1.73-5.55 2.67-11.46 2.67-17.58 0-.755-.015-1.506-.044-2.253-.163-4.179 1.725-8.17 5.109-10.628l6.815-4.949c6.43-4.67 3.127-14.84-4.82-14.84h-10.718c-3.689 0-7.218-1.613-9.548-4.473-3.332-4.091-7.204-7.728-11.504-10.807l66.05-90.99c.02-.03.04-.05.06-.08 8.64-11.85 21.1-20.37 35.29-24.09l.29-.08c32.64-8.57 66.3 9.81 76.72 41.91l15.04 46.26 15.12 46.55c10.39 31.979-5.88 66.529-37.15 78.89z" fill="#ffec80"/></g><g><path d="m322.057 226.217h-10.916c-3.673 0-7.099-1.717-9.424-4.561-7.142-8.738-16.745-15.385-27.752-18.882-3.763-1.196-6.679-4.198-7.899-7.953l-3.948-12.152c-2.456-7.558-13.148-7.558-15.603 0l-4.423 13.613c-1.142 3.514-3.776 6.37-7.222 7.704-9.548 3.696-17.892 9.804-24.279 17.585-2.39 2.911-5.919 4.647-9.686 4.647h-14.33c-7.946 0-11.25 10.169-4.822 14.839l10.369 7.534c3.27 2.376 5.128 6.191 5.123 10.233v.064c0 11.704 3.425 22.602 9.316 31.766 2.015 3.135 2.599 6.977 1.447 10.521l-3.361 10.344c-2.456 7.558 6.194 13.842 12.623 9.171l6.844-4.973c3.349-2.433 7.692-3.052 11.573-1.613 6.364 2.36 13.244 3.654 20.429 3.654 6.443 0 12.639-1.044 18.439-2.961 3.808-1.259 7.997-.506 11.241 1.852l5.561 4.04c6.429 4.671 15.079-1.614 12.623-9.171l-2.165-6.662c-1.235-3.802-.563-7.964 1.801-11.188 7.148-9.745 11.37-21.77 11.37-34.782 0-.755-.015-1.507-.043-2.255-.16-4.175 1.727-8.163 5.108-10.619l6.823-4.958c6.433-4.669 3.129-14.837-4.817-14.837z" fill="#ffc145"/></g><g><path d="m465.296 318.627c.03-.011.06-.023.089-.035 36.096-14.272 54.974-54.368 42.977-91.283l-30.167-92.806c-12.046-37.1-51.043-58.398-88.775-48.488-.041.011-.081.022-.122.033l-.229.063c-3.792.998-7.478 2.31-11.036 3.889.398-3.911.497-7.862.259-11.816-1.12-18.807-9.299-36.287-23.033-49.226-13.726-12.918-31.667-20.033-50.515-20.032l-97.69.008c-38.843.003-71.139 30.378-73.525 69.151-.008.126-.013.253-.016.379-.226 3.893-.125 7.782.265 11.633-3.552-1.578-7.232-2.891-11.019-3.893-.125-.033-.252-.064-.378-.092-37.705-9.861-76.635 11.418-88.686 48.515l-30.094 92.636c-12.005 36.972 6.925 77.084 43.1 91.323l10.517 4.133-6.133 9.603c-.559.875-1.088 1.76-1.606 2.65-2.778 4.773-1.16 10.895 3.613 13.673 4.772 2.777 10.894 1.16 13.673-3.613.378-.65.763-1.298 1.173-1.941l10.749-16.829 115.392-37.454c1.173 2.423 2.498 4.783 3.946 7.052.457.717.716 1.491.439 2.341l-3.329 10.243c-5.309 16.383 14.079 30.468 28.024 20.339l6.841-4.973c.704-.514 1.56-.573 2.361-.278 4.394 1.618 8.987 2.8 13.62 3.486l.009 102.254c.001 12.444-4.36 24.581-12.252 34.142l-.127.153c-18.009 21.823-50.048 25.891-72.939 9.262l-30.912-22.456 52.453-72.209c3.246-4.469 2.254-10.722-2.214-13.968-4.47-3.245-10.722-2.254-13.968 2.214l-52.453 72.209-31.949-23.21c-.762-.554-1.586-1.195-2.518-1.96-4.271-3.503-10.572-2.879-14.074 1.39-3.503 4.27-2.88 10.572 1.39 14.074 1.236 1.014 2.362 1.888 3.445 2.675l79.045 57.423c13.013 9.453 28.172 14.032 43.23 14.031 21.303-.002 42.396-9.18 56.862-26.71l.126-.152c2.566-3.109 4.85-6.418 6.858-9.876 2.012 3.467 4.302 6.786 6.877 9.907l.073.088c14.494 17.55 35.597 26.728 56.909 26.727 15.052-.001 30.209-4.584 43.211-14.032l79.166-57.537-.001.001c31.393-22.81 39.689-66.336 18.838-99.167l-.281-.433c-2.173-3.423-4.626-6.637-7.31-9.631 3.886-.838 7.714-1.975 11.432-3.446zm-164.705-85.123c5.079 2.764 10.362 2.712 15.928 2.712-6.996 5.085-11.914 11.718-11.565 20.798.423 10.959-2.908 21.894-9.394 30.738-4.711 6.423-5.196 14.202-2.792 21.594-6.193-4.576-13.871-6.504-21.345-4.043-10.416 3.443-21.967 3.241-32.253-.572-8.494-3.15-16.337-.436-23.298 4.623 2.675-8.235 4.255-16.14-.817-23.978-5.091-7.867-7.808-17.168-7.809-26.535.008-6.706-3.018-13.249-8.197-17.518-2.205-1.818-4.628-3.416-6.94-5.095l8.789-.001c6.771-.001 13.081-2.98 17.312-8.174 5.328-6.539 12.397-11.692 20.266-14.739 6.169-2.389 10.818-7.432 13.015-13.628 1.013-2.858 1.881-5.775 2.818-8.659.995 3.06 1.811 6.272 3.132 9.212 2.552 5.682 7.55 10.178 13.492 12.065 9.029 2.878 17.115 8.411 23.1 15.757 1.806 2.215 4.048 4.074 6.558 5.443zm-147.1-154.077c.007-.118.013-.237.016-.355 1.858-28.132 25.333-50.135 53.549-50.137l37.241-.003.008 89.112c0 5.523 4.478 10 10.001 9.999 5.523 0 10-4.478 9.999-10.001l-.008-89.112 40.449-.003c13.732-.001 26.804 5.183 36.803 14.596 10.004 9.424 15.963 22.158 16.779 35.859.739 12.293-2.814 24.564-10.004 34.56-.031.042-.063.084-.093.126l-60.638 83.55c-3.252-1.674-6.65-3.084-10.128-4.216-.876-.285-1.596-.763-1.892-1.673l-3.949-12.152c-5.343-16.437-29.287-16.427-34.624.003l-4.421 13.612c-.299.926-1.145 1.404-1.988 1.74-2.114.844-4.196 1.786-6.214 2.839l-60.744-83.509-.098-.135c-7.242-10.032-10.808-22.355-10.044-34.7zm-130.868 154.013 11.505-35.416 84.735 27.524c1.027.333 2.068.492 3.092.492 4.215 0 8.136-2.688 9.508-6.913 1.706-5.253-1.169-10.894-6.421-12.601l-84.735-27.524 12.408-38.194c7.33-22.567 28.306-37.098 51.02-37.1 4.538 0 9.148.58 13.729 1.791.12.032.24.061.36.088 11.841 3.177 22.315 10.37 29.511 20.274l60.82 83.613c-1.869 1.815-3.645 3.742-5.298 5.756-.517.63-1.23.991-1.956.991l-14.33.001c-17.235.001-24.643 22.806-10.694 32.937 3.456 2.508 6.911 5.016 10.366 7.525 1.087.79 1.003 2.184 1.023 3.378.055 3.231.321 6.466.827 9.659l-73.888 23.983-41.696 13.534-18.49-7.266c-26.35-10.372-40.142-39.596-31.396-66.532zm407.848 181.835s-.001 0-.001.001l-31.921 23.2-52.382-72.084c-3.246-4.467-9.499-5.457-13.968-2.211-4.467 3.247-5.458 9.5-2.211 13.968l52.383 72.085-31.064 22.577c-22.885 16.628-54.924 12.565-72.969-9.283l-.069-.083c-7.916-9.597-12.277-21.735-12.278-34.177l-.009-102.217c3.792-.549 7.547-1.426 11.193-2.599.974-.313 1.886-.346 2.754.284l5.561 4.04c6.657 4.835 16.111 4.482 22.408-.796 6.121-5.13 7.574-13.493 5.174-20.875l-1.735-5.341c-.454-1.397.537-2.443 1.275-3.5 2.083-2.982 3.95-6.127 5.535-9.402l96.999 31.436c.003.001.005.001.008.002 11.86 3.845 22.068 11.754 28.794 22.348l.282.435c15.155 23.865 9.111 55.575-13.759 72.192zm27.169-115.13c-11.563 4.576-24.446 4.981-36.272 1.141-.095-.031-.193-.061-.294-.09l-96.019-31.118-.917-.297c.569-3.598.857-7.255.856-10.897 0-3.006.105-4.182 2.499-5.921 2.63-1.91 5.569-3.696 7.81-6.069 4.53-4.797 6.103-11.831 4.063-18.107-2.398-7.378-9.23-12.297-16.919-12.568-3.708-.131-7.437-.008-11.147-.007-.703-.009-1.399-.345-1.844-.889-1.74-2.129-3.62-4.158-5.599-6.066l60.511-83.375c.007-.01.015-.02.022-.03.025-.033.049-.066.073-.099 7.272-9.974 17.835-17.188 29.744-20.311.042-.011.083-.022.125-.034l.225-.062c27.469-7.186 55.845 8.327 64.616 35.339l12.442 38.275-84.748 27.544c-5.252 1.707-8.126 7.349-6.419 12.602 1.373 4.226 5.294 6.912 9.509 6.912 1.024 0 2.065-.159 3.092-.492l84.749-27.544 11.543 35.51c8.736 26.881-4.997 56.077-31.269 66.487z"/><path d="m55.045 376.438c-7.345-4.894-17.252 1.892-15.305 10.51 2.075 9.186 15.06 10.466 18.887 1.853 1.937-4.362.436-9.734-3.582-12.363z"/><path d="m265.513 232.74c-1.639-3.933-5.707-6.461-9.962-6.144-4.357.325-8.046 3.532-9.013 7.786-1.985 8.735 8.177 15.473 15.499 10.357 3.8-2.656 5.227-7.725 3.476-11.999z"/><path d="m245.156 268.022c-1.616-3.944-5.725-6.461-9.972-6.144-4.169.312-7.775 3.278-8.894 7.301-2.498 8.98 8.129 16.196 15.591 10.692 3.642-2.686 5.015-7.677 3.275-11.849z"/><path d="m285.886 268.018c-3.306-8.069-15.143-8.057-18.47.002-1.625 3.935-.524 8.61 2.708 11.388 3.24 2.785 7.99 3.183 11.665 1.01 4.201-2.485 5.971-7.907 4.097-12.4z"/></g></g></svg>